<?xml version="1.0" encoding="utf-8"?>
<!-- Generator: Adobe Illustrator 26.0.3, SVG Export Plug-In . SVG Version: 6.00 Build 0)  -->
<svg version="1.1" id="Layer_1" xmlns="http://www.w3.org/2000/svg" xmlns:xlink="http://www.w3.org/1999/xlink" x="0px" y="0px"
	 viewBox="0 0 714 714" style="enable-background:new 0 0 714 714;" xml:space="preserve">
<style type="text/css">
	.st0{fill:#0F4D93;}
	.st1{fill:#FFFFFF;}
	.st2{fill:#025F4D;}
	.st3{fill:#0D113C;}
	.st4{fill:#D37028;}
	.st5{fill:#DBB922;}
	.st6{fill:#E3D7B6;}
	.st7{fill:#D277B0;}
	.st8{fill:#325025;}
	.st9{fill:#201B54;}
	.st10{fill:#302F7F;}
	.st11{fill:#B056A1;}
	.st12{fill:#3364AF;}
	.st13{fill:#B85B35;}
	.st14{fill:#1E3E6B;}
	.st15{fill:#273571;}
	.st16{fill:#C04699;}
	.st17{fill:#0F143E;}
	.st18{fill:#824895;}
</style>
<g>
	<path class="st8" d="M590.350769,453.531311c-26.0371704-13.4673767-41.300293-7.1827393-41.300293-7.1827393
		s-8.9783325-4.4890137-23.2915649-7.8939514l0,0c-10.3566895-11.8441772-22.339447-24.6747742-35.1558838-36.7666931
		l29.5026245-0.2820129c14.62854,24.9499817,58.6383667,19.4997559,99.0390625,48.73349
		c40.4006348,29.2337341,68.7262573,31.1743164,68.7262573,31.1743164s-16.0623779-32.2340698-32.1589966-53.9974365
		c-16.0964966-21.7636414-57.5977173-44.0720215-89.7801514-43.715271
		c-32.1825562,0.3570251-44.6893921,10.9407043-44.6893921,10.9407043l-35.5393982,2.5985718
		c-10.9106445-9.9568481-22.3362122-19.2417908-33.8145142-26.8322449
		c-4.6422119-3.0702515-9.3149719-6.2084656-14.0421143-9.3829346c-7.4197693-4.9827881-14.9885559-10.0593262-22.7776794-15.105835
		l33.6077576-6.6444702c25.0572815,9.9211426,68.8039246,8.3905334,112.9458313-0.8012695
		c44.1418457-9.191803,55.9237061-29.5233765,55.9237061-29.5233765s-38.267395-8.8138428-72.9205322-10.1810913
		c-34.6530457-1.3669434-76.7203064,16.5599976-99.3316345,34.7771606l-37.0956116,7.968689
		c-26.3381958-16.6664429-55.4752502-32.5874329-90.6206055-43.1631775l30.5266724-15.618866
		c26.8172302,2.671051,70.668396-7.0499268,108.3979492-31.7371826
		c25.2462769-16.5195007,54.3572388-49.6553497,54.3572388-49.6553497s-47.8884888,7.9463348-81.5885315,16.1324768
		s-69.2401733,36.9600677-85.9902649,60.6784515l-33.6764832,17.9337463
		c-23.4802551-6.3503418-49.5982361-10.2980042-79.2592926-10.5536804
		c-18.7071838-0.1591187-35.696106,0.1387329-51.2370453,0.8502197l24.2769775-16.8060303
		c26.9349365-0.8977966,66.4395752-19.7522736,103.2507324-45.7894745
		c36.8111572-26.0369263,39.5046387-49.3807068,39.5046387-49.3807068s-38.6067505,7.182724-70.9287415,19.7522736
		c-32.321991,12.5695648-63.74617,45.7894897-77.2136688,71.5141296l-29.6929169,21.2843018
		c-66.6677017,4.0617676-105.354454,16.2748718-139.4772186,32.9880371
		c-1.4382992,0.7044373-2.0328732,2.4405823-1.3284454,3.8788757c0.7044277,1.438324,2.4434128,2.0328674,3.8788815,1.3284607
		c31.907835-15.627655,67.9369125-27.2555237,128.1014099-31.785614l26.8464508,15.6435242
		c-0.1983337,28.9214478,40.4025116,46.7580566,60.1548004,92.5475464
		c19.7523651,45.7894897,43.095993,61.9505615,43.095993,61.9505615s2.693512-35.9133606,0-62.8483582
		c-2.6934814-26.9349976-26.9349976-67.3373718-54.7678223-83.4984436
		c-27.8328094-16.1607666-43.9938049-13.4673767-43.9938049-13.4673767l-21.9066162-10.9673157
		c18.1833191-1.1007996,38.4796448-1.5923157,61.3865509-1.3961182
		c94.5835724,0.8143005,152.882309,39.9666443,204.3191071,74.5096436c2.5617676,1.7205811,5.1055298,3.427002,7.6393433,5.120697
		l19.1533203,34.0056152c-15.0917664,24.6727905,10.4851379,60.8995667,3.7807617,110.3151245
		s4.9542236,75.3032227,4.9542236,75.3032227s20.8364563-29.3744507,32.4260254-53.8371582
		c11.5895996-24.4630127,11.6690674-71.579834-3.8350525-99.7838135
		c-15.5041504-28.20401-30.7376709-34.2349548-30.7376709-34.2349548L453.78125,378.6241455
		c52.7612,37.2208557,103.1572876,107.9753113,103.6762695,108.7083435
		c0.5651245,0.7984314,1.4609375,1.2242737,2.3692627,1.2242737c0.5786743,0,1.1641846-0.1732788,1.6727295-0.5322876
		c1.3068848-0.925293,1.6160889-2.7350464,0.6919556-4.0419617c-0.2490845-0.3516541-11.8331909-16.6152039-29.6554565-37.6514893
		l15.6165771,7.2002869c0,24.2415771,64.6439819,65.541748,86.1920166,90.6811523
		c21.5479736,25.1394043,32.3219604,53.8700562,33.2197876,46.2716675s1.7956543-30.1109009-9.8761597-60.8049927
		C646.0164185,498.9847107,616.3879395,466.9986572,590.350769,453.531311z"/>
	<g>
		<path class="st9" d="M342.2764587,287.1822815c-30.1566162-18.4838257-63.3651733-0.2393494-63.3651733-0.2393494
			s-16.3219299-6.6894226-40.1056366,1.9350281c23.7309113-1.3860168,36.492569,4.8321838,36.492569,4.8321838
			s-8.7581482,25.1047058,7.7590332,50.8392029c16.5172119,25.7342529,60.5489807,35.1872253,80.4065552,15.1750183
			C383.3214111,339.7119141,372.433075,305.6661072,342.2764587,287.1822815z"/>
		<path class="st9" d="M415.4075623,376.781311c0,0-0.2945862-17.6371155-17.605011-36.086792
			c10.6387024,21.257843,9.9614868,35.4375305,9.9614868,35.4375305s-26.5234375,1.8599854-43.651001,27.1923218
			c-17.1275024,25.3323364-8.4367065,69.5209961,17.7879028,79.8692932
			c26.2246704,10.3482971,53.2102966-13.0921326,58.2929993-48.0956116
			C445.2766418,400.0948486,415.4075623,376.781311,415.4075623,376.781311z"/>
		<path class="st9" d="M601.8346558,539.7865601c-3.5511475-35.1917114-38.1794434-50.5718994-38.1794434-50.5718994
			s-4.5598755-17.039978-25.8253174-30.7449646c15.4730225,18.04599,18.2521973,31.9674072,18.2521973,31.9674072
			s-25.2821655,8.2317505-35.760376,36.9596863c-10.4781799,28.7276611,8.6618042,69.493042,36.6124268,73.1781006
			C584.8848267,604.2597046,605.3858643,574.9785156,601.8346558,539.7865601z"/>
	</g>
	<g>
		<path class="st10" d="M333.2694092,320.7384033l13.8361816,14.2313232c0,0,12.4470215-12.9620056,18.1267395-11.3937378
			l-12.5922546-16.2785339C352.6400757,307.2974548,341.1758118,312.0413818,333.2694092,320.7384033z"/>
		<path class="st10" d="M410.0362549,427.7177429l-8.1167603,18.1133118c0,0,16.6421814,6.7809448,17.2820129,12.6386414
			l10.4783325-17.7131653C429.6798401,440.7565308,421.0381165,431.8540649,410.0362549,427.7177429z"/>
		<path class="st10" d="M569.0752563,529.7631226l0.0489502,19.8486328c0,0,17.9584351-0.661438,20.9501953,4.414856
			l2.2683105-20.4550171C592.3427124,533.5715942,580.8048096,529.0096436,569.0752563,529.7631226z"/>
	</g>
</g>
</svg>
