<?xml version="1.0" encoding="utf-8"?>
<!-- Generator: Adobe Illustrator 26.0.3, SVG Export Plug-In . SVG Version: 6.00 Build 0)  -->
<svg version="1.1" id="Layer_1" xmlns="http://www.w3.org/2000/svg" xmlns:xlink="http://www.w3.org/1999/xlink" x="0px" y="0px"
	 viewBox="0 0 714 714" style="enable-background:new 0 0 714 714;" xml:space="preserve">
<style type="text/css">
	.st0{fill:#0F4D93;}
	.st1{fill:#FFFFFF;}
	.st2{fill:#025F4D;}
	.st3{fill:#0D113C;}
	.st4{fill:#D37028;}
	.st5{fill:#DBB922;}
	.st6{fill:#E3D7B6;}
	.st7{fill:#D277B0;}
	.st8{fill:#325025;}
	.st9{fill:#201B54;}
	.st10{fill:#302F7F;}
	.st11{fill:#B056A1;}
	.st12{fill:#3364AF;}
	.st13{fill:#B85B35;}
	.st14{fill:#1E3E6B;}
	.st15{fill:#273571;}
	.st16{fill:#C04699;}
	.st17{fill:#0F143E;}
	.st18{fill:#824895;}
</style>
<g>
	<path d="M590.350769,453.5311584c-26.0372314-13.4672852-41.300293-7.1826172-41.300293-7.1826172
		s-8.9783936-4.4890137-23.291626-7.894043c-10.3566895-11.8439941-22.3393555-24.6748047-35.1557617-36.7666016
		l29.5025635-0.2819824c14.62854,24.9499512,58.6383057,19.4997559,99.0390625,48.7333984
		c40.4006348,29.2338867,68.7261963,31.1743164,68.7261963,31.1743164s-16.0622559-32.2341309-32.1589355-53.9973145
		c-16.0964355-21.7636719-57.5976562-44.0720215-89.7801514-43.715332
		c-32.1824951,0.3569336-44.6893311,10.9406738-44.6893311,10.9406738l-35.5395508,2.5986328
		c-10.9105225-9.9567871-22.3361816-19.2419434-33.8144531-26.8322754
		c-4.6420898-3.0703125-9.3149414-6.2084961-14.0419922-9.3828125c-7.4199219-4.9829102-14.9886475-10.0595703-22.777832-15.105957
		l33.6079102-6.6445312c25.0571289,9.9211426,68.803833,8.390625,112.9458008-0.8012695
		c44.1418457-9.1918945,55.923584-29.5234375,55.923584-29.5234375s-38.267334-8.8137207-72.9204102-10.1809082
		c-34.6530762-1.3669434-76.7203369,16.5598145-99.331665,34.7770996l-37.0955811,7.96875
		c-11.878418-7.5166016-24.3347168-14.8757324-37.6459961-21.6669922
		c-4.5911865-12.2285156-14.3815918-24.0493164-28.2758789-32.5656738
		c-0.4799805-0.2941895-0.9626465-0.5529785-1.4440918-0.8288574l7.2719727-3.7207031
		c26.8171387,2.6711426,70.668457-7.0498047,108.3979492-31.7370453
		c25.2463379-16.5195312,54.3571777-49.6552734,54.3571777-49.6552734s-47.8884277,7.9462891-81.5883789,16.1323242
		c-33.7001953,8.1862793-69.2402344,36.9602051-85.9903564,60.6784515l-9.3050537,4.9553223
		c-27.6376953-11.1245117-55.0644531,3.9362793-55.0644531,3.9362793s-12.0144043-4.9125977-30.4395142-0.8706055
		c-5.8960571-0.3637695-11.9296875-0.5874023-18.12677-0.6408691c-18.7071533-0.1591797-35.696106,0.1386719-51.2369995,0.8503418
		l24.2769775-16.8061523c26.9349365-0.8977051,66.4396362-19.752182,103.2506714-45.7895355
		c36.8112793-26.0368652,39.5046387-49.3806152,39.5046387-49.3806152s-38.6066895,7.1826172-70.9287109,19.7521973
		c-32.3219604,12.5695801-63.7461548,45.7895508-77.2136841,71.5141449l-29.6928711,21.2841797
		c-66.6677322,4.0620117-105.3544998,16.2749023-139.4772339,32.9882812
		c-1.4382935,0.7043457-2.0328979,2.4404297-1.3284302,3.8789062c0.7044067,1.4382324,2.4434204,2.0327148,3.8788452,1.3283691
		c31.907835-15.6276855,67.9369507-27.2556152,128.1014404-31.7856445l26.8464355,15.6435547
		c-0.1983032,28.9213867,40.4025269,46.7580566,60.1547852,92.5476074
		c19.7524414,45.7895508,43.0959473,61.9504395,43.0959473,61.9504395s2.6936035-35.9133301,0-62.8483887
		c-2.6933594-26.9350586-26.9349365-67.3374023-54.7677612-83.498291s-43.9937744-13.4675293-43.9937744-13.4675293
		l-21.9066162-10.9672852c18.1832886-1.1008301,38.4796143-1.5922852,61.3865356-1.3959961
		c15.883606,0.1367188,30.7225342,1.3759766,44.6988525,3.4716797c-1.3924561,4.8632812-6.5351562,27.1030273,8.0632324,49.8476562
		c16.517334,25.734375,60.5490723,35.1872559,80.4066162,15.1750488
		c8.7979736-8.8664551,11.5496826-20.4882812,9.2752686-32.2905273c8.9661865,4.734375,17.5401611,9.7180176,25.8220215,14.8117676
		c9.8417969,20.3916016,9.2028809,33.8864746,9.2028809,33.8864746s-26.5234375,1.8601074-43.6508789,27.1923828
		c-17.1275635,25.3322754-8.4367676,69.5209961,17.7878418,79.8693848
		c26.2246094,10.3481445,53.2102051-13.0922852,58.2929688-48.0957031
		c5.0827637-35.0031738-24.786377-58.3168945-24.786377-58.3168945s-0.2807617-16.128418-15.4404297-33.671875
		c12.0678711,7.4694824,23.5194092,15.1572266,34.6470947,22.630127c2.5617676,1.720459,5.1055908,3.427002,7.6392822,5.1208496
		l19.1533203,34.0053711c-15.0916748,24.6728516,10.4852295,60.8996582,3.7807617,110.3152161
		c-6.7043457,49.4155273,4.9543457,75.3032227,4.9543457,75.3032227s20.8364258-29.3742676,32.4260254-53.8371582
		s11.6689453-71.5798645-3.8352051-99.7837219c-15.5040283-28.2041016-30.7375488-34.2351074-30.7375488-34.2351074
		L453.781311,378.624176c43.0634766,30.3793945,84.5460205,83.0915527,98.6245117,101.8435059
		c2.9158936,6.1796875,3.6762695,9.9692383,3.6762695,9.9692383s-25.2822266,8.2319336-35.760376,36.9599915
		c-10.4781494,28.7275391,8.6617432,69.4929199,36.6124268,73.1779785
		c27.9506836,3.6848145,48.4516602-25.5964355,44.9005127-60.7883301
		c-3.5511475-35.1916809-38.1794434-50.5718079-38.1794434-50.5718079s-0.2827148-1.0546875-1.0328369-2.8476562
		c0.2006836-0.7939453,0.0786133-1.6640625-0.4309082-2.3847656c-0.0673828-0.0949707-0.9699707-1.3618164-2.59375-3.5632324
		c-1.8277588-3.0769043-4.4033203-6.7163086-7.963623-10.5185547c-4.9486084-6.390625-11.4460449-14.5375977-19.0981445-23.5695801
		l15.6166992,7.2001953c0,24.2416992,64.6439209,65.5420227,86.1918945,90.6811829
		c21.5480957,25.1396484,32.3220215,53.8701172,33.2198486,46.2717285s1.7956543-30.1108398-9.8760986-60.8049316
		C646.0164185,498.9847717,616.3880005,466.9986877,590.350769,453.5311584z"/>
	<g>
		<path class="st1" d="M333.2693481,320.7384338l13.8361816,14.2312012c0,0,12.4470215-12.9619141,18.1268311-11.3935547
			l-12.5922852-16.2785645C352.6400757,307.2975159,341.1758423,312.0414124,333.2693481,320.7384338z"/>
		<path class="st1" d="M410.0361938,427.7176819l-8.1166992,18.1132812c0,0,16.6422119,6.7810059,17.2819824,12.6386719
			l10.4783936-17.7131348C429.6798706,440.7565002,421.038147,431.8539124,410.0361938,427.7176819z"/>
		<path class="st1" d="M569.0752563,529.7631226l0.0490723,19.8486328c0,0,17.958374-0.661377,20.9500732,4.4147949
			l2.2683105-20.454834C592.3427124,533.5717163,580.8047485,529.0097046,569.0752563,529.7631226z"/>
	</g>
</g>
</svg>
